# xmcd
#
# Track frame offsets: 
#        150
#        20809
#        41534
#        61079
#        81891
#        106513
#        128833
#        153420
#        166579
#        188306
#        210296
#        230923
#        250415
#
# Disc length: 3529 seconds
#
# Revision: 0
# Processed by: cddbd v1.5.2PL0 Copyright (c) Steve Scherf et al.
# Submitted via: ExactAudioCopy v0.99pb5
#
DISCID=980dc70d
DTITLE=Various Artist - Mua xuan do co em
DYEAR=1900
DGENRE=Soundtrack
TTITLE0=Mua xuan do co em_Dang Nguyen
TTITLE1=Don xuan nay nho xuan xua_My Huyen
TTITLE2=Gai xuan_Ha Thanh Xuan
TTITLE3=Mua xuan dau tien_Tuong Khue
TTITLE4=Ai len xu hoa dao_Tam Doan
TTITLE5=Thu xuan hai ngoai_Dang The Luan
TTITLE6=Ngay dau mot nam_Bang Tam
TTITLE7=Nho mot chieu xuan_Ngoc Minh
TTITLE8=Thiep hong anh viet ten em_Dan Nguyen and Y Phung
TTITLE9=Canh thiep dau xuan_Ngoc Huyen
TTITLE10=Cau chuyen dau nam_Tuong Nguyen
TTITLE11=Xuan ca_hop ca
TTITLE12=Dan ao mua xuan_Phuong Hong Que
EXTD=
EXTT0=
EXTT1=
EXTT2=
EXTT3=
EXTT4=
EXTT5=
EXTT6=
EXTT7=
EXTT8=
EXTT9=
EXTT10=
EXTT11=
EXTT12=
PLAYORDER=
